# xmcd
#
# Track frame offsets:
#	150
#	23414
#	42557
#	62837
#	81781
#	98155
#	118783
#	141332
#	159581
#	177070
#	196625
#	218157
#	240151
#	260205
#	278389
#
# Disc length: 3977 seconds
#
# Revision: 0
# Processed by: cddbd v1.5.2PL0 Copyright (c) Steve Scherf et al.
# Submitted via: dBpowerAMP V4.0
#
DISCID=c60f870f
DTITLE=HiFi characters - 釋愛
DYEAR=1900
DGENRE=Blues
TTITLE0=死了都要愛
TTITLE1=愛無止境
TTITLE2=離歌
TTITLE3=認真的雪
TTITLE4=眼淚成詩
TTITLE5=親愛的不要離開我
TTITLE6=再見了最愛的人
TTITLE7=如果愛
TTITLE8=隱形的翅膀
TTITLE9=愛你勝過愛自己
TTITLE10=愛如空氣
TTITLE11=眼淚化作相思雨
TTITLE12=愛情復興
TTITLE13=最愛是誰
TTITLE14=愛是永恆
EXTD=
EXTT0=
EXTT1=
EXTT2=
EXTT3=
EXTT4=
EXTT5=
EXTT6=
EXTT7=
EXTT8=
EXTT9=
EXTT10=
EXTT11=
EXTT12=
EXTT13=
EXTT14=
PLAYORDER=
